<svg width="500" height="160" viewBox="0 0 500 160" fill="none" xmlns="http://www.w3.org/2000/svg">
<path d="M110.115 22.6321C110.702 21.9234 131.042 35.4341 130.945 43.6797C130.848 51.9252 112.132 70.5894 110.879 71.7895C109.626 72.9896 104.621 74.6722 101.808 72.6402C98.9953 70.6083 99.1613 67.034 99.6114 63.8854C100.062 60.7369 109.528 23.3407 110.115 22.6321Z" fill="#B8E0EF"/>
<path d="M107.206 50.0541C110.22 53.1883 114.186 57.8884 114.842 61.495C115.921 67.4323 111.925 70.8265 110.672 72.0266C109.419 73.2267 104.621 74.6723 101.808 72.6403C98.9953 70.6083 99.1775 66.8103 99.6277 63.6618C99.9053 61.7199 101.393 55.705 102.493 51.3798C103.044 49.2125 105.656 48.442 107.206 50.0541Z" fill="#397489"/>
<path d="M61.0854 18.5913C60.9834 17.6768 84.8313 12.4309 90.6953 18.2285C96.5593 24.0261 96.9836 50.4549 96.9765 52.1898C96.9695 53.9248 94.7031 58.6938 91.2875 59.3056C87.8719 59.9174 85.4161 57.3151 83.464 54.8041C81.5118 52.2931 61.1873 19.5059 61.0854 18.5913Z" fill="#E1D2FF"/>
<path d="M78.7902 39.7328C83.1381 39.7423 89.2747 40.1537 92.3244 42.1876C97.3449 45.5357 97.0108 50.7678 97.0037 52.5028C96.9967 54.2377 94.7031 58.6938 91.2875 59.3056C87.872 59.9174 85.2665 57.148 83.3143 54.637C82.1103 53.0883 78.8171 47.8397 76.4698 44.0442C75.2935 42.1422 76.554 39.7278 78.7902 39.7328Z" fill="#7A62AA"/>
<path d="M23.9023 47.9663C23.204 47.367 37.0676 27.2661 45.3102 27.507C53.5528 27.7479 71.8876 46.7873 73.0656 48.0609C74.2437 49.3346 75.8386 54.3681 73.7579 57.145C71.6771 59.9219 68.1063 59.6935 64.9661 59.1885C61.8258 58.6834 24.6006 48.5656 23.9023 47.9663Z" fill="#CCEFBF"/>
<path d="M51.2694 51.3535C54.4557 48.3952 59.2243 44.511 62.8418 43.9185C68.797 42.9432 72.1209 46.9976 73.299 48.2713C74.477 49.545 75.8387 54.3681 73.7579 57.145C71.6772 59.9218 67.8829 59.6734 64.7427 59.1683C62.806 58.8569 56.818 57.2642 52.5126 56.0892C50.3553 55.5004 49.6305 52.875 51.2694 51.3535Z" fill="#679157"/>
<path d="M20.0692 97.0568C19.1546 97.1588 13.9088 73.3108 19.7063 67.4469C25.5039 61.5829 51.9327 61.1585 53.6677 61.1656C55.4026 61.1727 60.1716 63.4391 60.7834 66.8547C61.3952 70.2702 58.7929 72.726 56.2819 74.6782C53.771 76.6304 20.9837 96.9548 20.0692 97.0568Z" fill="#FDE1AC"/>
<path d="M41.2105 79.3519C41.2201 75.004 41.6315 68.8675 43.6654 65.8178C47.0135 60.7972 52.2456 61.1313 53.9806 61.1384C55.7155 61.1455 60.1716 63.439 60.7834 66.8546C61.3952 70.2702 58.6258 72.8756 56.1148 74.8278C54.5661 76.0319 49.3175 79.325 45.522 81.6724C43.62 82.8486 41.2056 81.5882 41.2105 79.3519Z" fill="#A3844B"/>
<path d="M50.2305 132.698C49.6435 133.406 29.3038 119.896 29.4007 111.65C29.4977 103.405 48.2142 84.7403 49.4672 83.5402C50.7201 82.3401 55.725 80.6575 58.5378 82.6895C61.3505 84.7215 61.1845 88.2957 60.7343 91.4443C60.2842 94.5928 50.8176 131.989 50.2305 132.698Z" fill="#2F80ED"/>
<path d="M53.1396 105.276C50.1262 102.141 46.1593 97.4413 45.5038 93.8347C44.4247 87.8974 48.4205 84.5032 49.6734 83.3031C50.9263 82.103 55.725 80.6574 58.5377 82.6894C61.3505 84.7214 61.1682 88.5194 60.7181 91.6679C60.4405 93.6098 58.9526 99.6247 57.8529 103.95C57.3018 106.117 54.6895 106.888 53.1396 105.276Z" fill="#1C4883"/>
<path d="M98.3026 139.458C98.3726 140.375 74.3561 144.786 68.6981 138.787C63.04 132.788 63.5383 106.361 63.6059 104.627C63.6735 102.893 66.1049 98.2064 69.5398 97.7142C72.9746 97.222 75.3381 99.9084 77.2015 102.486C79.0648 105.064 98.2326 138.54 98.3026 139.458Z" fill="#BAE5F5"/>
<path d="M81.3463 117.711C77.0014 117.55 70.883 116.925 67.9061 114.786C63.0054 111.264 63.5219 106.047 63.5896 104.313C63.6572 102.58 66.1049 98.2064 69.5397 97.7141C72.9745 97.2219 75.4818 100.081 77.3451 102.658C78.4944 104.248 81.6024 109.608 83.8158 113.483C84.925 115.425 83.581 117.794 81.3463 117.711Z" fill="#397489"/>
<path d="M135.004 108.665C135.702 109.264 121.838 129.365 113.596 129.124C105.353 128.883 87.0184 109.844 85.8403 108.57C84.6623 107.297 83.0673 102.263 85.1481 99.4862C87.2288 96.7094 90.7997 96.9378 93.9399 97.4428C97.0801 97.9478 134.305 108.066 135.004 108.665Z" fill="#CCEFBF"/>
<path d="M107.637 105.278C104.45 108.236 99.6817 112.12 96.0642 112.713C90.1089 113.688 86.785 109.634 85.6069 108.36C84.4289 107.086 83.0673 102.263 85.148 99.4862C87.2288 96.7094 91.023 96.9579 94.1632 97.4629C96.1 97.7744 102.088 99.367 106.393 100.542C108.551 101.131 109.275 103.756 107.637 105.278Z" fill="#679157"/>
<path d="M186.132 105.888C182.878 105.888 179.837 105.296 177.01 104.112C174.184 102.896 171.685 101.236 169.516 99.1326C167.379 97.0289 165.703 94.5801 164.487 91.7861C163.271 88.9921 162.663 86.0009 162.663 82.8125C162.663 79.6241 163.271 76.6329 164.487 73.8389C165.703 71.0449 167.379 68.5961 169.516 66.4924C171.685 64.3887 174.184 62.7451 177.01 61.5618C179.837 60.3456 182.878 59.7375 186.132 59.7375C189.057 59.7375 191.819 60.2141 194.415 61.1674C197.012 62.1206 199.329 63.4683 201.367 65.2104L198.853 75.5646C197.637 73.5266 195.96 71.8174 193.824 70.4368C191.687 69.0234 189.222 68.3167 186.428 68.3167C183.765 68.3167 181.349 68.9741 179.18 70.2889C177.043 71.5708 175.35 73.313 174.101 75.5153C172.852 77.6847 172.228 80.1171 172.228 82.8125C172.228 85.475 172.852 87.9074 174.101 90.1097C175.35 92.312 177.043 94.0706 179.18 95.3854C181.349 96.6674 183.765 97.3083 186.428 97.3083C189.189 97.3083 191.638 96.6181 193.774 95.2375C195.944 93.8241 197.637 92.0984 198.853 90.0604L201.367 100.415C199.297 102.124 196.963 103.472 194.366 104.458C191.802 105.411 189.057 105.888 186.132 105.888ZM212.622 105V60.625H221.793V97.0125H235.106V105H212.622ZM243.057 105L262.631 59.0472H262.73L282.304 105H273.38L270.077 97.1111H254.989L251.686 105H243.057ZM257.947 90.0111H267.118L265.195 85.475C264.669 84.2588 264.176 83.0919 263.716 81.9743C263.289 80.8238 262.878 79.4926 262.483 77.9806C262.122 79.4597 261.727 80.7745 261.3 81.925C260.873 83.0755 260.396 84.2588 259.87 85.475L257.947 90.0111ZM303.981 105.986C301.286 105.986 298.722 105.493 296.289 104.507C293.89 103.488 291.967 102.272 290.521 100.858L292.937 90.9972C294.087 93.0023 295.714 94.6787 297.818 96.0264C299.922 97.3412 302.075 97.9986 304.277 97.9986C306.085 97.9986 307.498 97.5056 308.517 96.5194C309.569 95.5333 310.095 94.3336 310.095 92.9201C310.095 91.7697 309.816 90.8164 309.257 90.0604C308.731 89.3044 308.09 88.6799 307.334 88.1868C306.611 87.6937 305.97 87.3157 305.411 87.0528L300.185 84.4396C298.673 83.6836 297.226 82.7961 295.846 81.7771C294.465 80.7252 293.331 79.4269 292.444 77.8819C291.589 76.337 291.162 74.4306 291.162 72.1625C291.162 69.6644 291.721 67.4785 292.838 65.6049C293.989 63.7312 295.599 62.2685 297.67 61.2167C299.741 60.1648 302.173 59.6389 304.967 59.6389C307.597 59.6389 309.931 60.0662 311.969 60.9208C314.039 61.7426 315.716 62.6301 316.998 63.5833L314.73 73.1979C313.415 71.4887 311.837 70.1245 309.996 69.1056C308.189 68.0537 306.381 67.5278 304.573 67.5278C302.962 67.5278 301.713 67.9387 300.826 68.7604C299.971 69.5822 299.544 70.6012 299.544 71.8174C299.544 72.5734 299.708 73.2472 300.037 73.8389C300.398 74.4306 300.908 74.9565 301.565 75.4167C302.223 75.8769 302.995 76.337 303.883 76.7972L309.158 79.4104C310.046 79.8377 311.015 80.3965 312.067 81.0868C313.119 81.7442 314.138 82.5824 315.124 83.6014C316.11 84.6204 316.916 85.853 317.54 87.2993C318.165 88.7127 318.477 90.4056 318.477 92.3778C318.477 94.9417 317.885 97.259 316.702 99.3299C315.519 101.368 313.842 102.995 311.673 104.211C309.536 105.394 306.972 105.986 303.981 105.986ZM341.47 105.986C338.774 105.986 336.21 105.493 333.778 104.507C331.379 103.488 329.456 102.272 328.009 100.858L330.425 90.9972C331.576 93.0023 333.203 94.6787 335.307 96.0264C337.41 97.3412 339.563 97.9986 341.766 97.9986C343.573 97.9986 344.987 97.5056 346.006 96.5194C347.058 95.5333 347.584 94.3336 347.584 92.9201C347.584 91.7697 347.304 90.8164 346.745 90.0604C346.219 89.3044 345.579 88.6799 344.822 88.1868C344.099 87.6937 343.458 87.3157 342.9 87.0528L337.673 84.4396C336.161 83.6836 334.715 82.7961 333.334 81.7771C331.954 80.7252 330.82 79.4269 329.932 77.8819C329.078 76.337 328.65 74.4306 328.65 72.1625C328.65 69.6644 329.209 67.4785 330.327 65.6049C331.477 63.7312 333.088 62.2685 335.159 61.2167C337.229 60.1648 339.662 59.6389 342.456 59.6389C345.085 59.6389 347.419 60.0662 349.457 60.9208C351.528 61.7426 353.204 62.6301 354.486 63.5833L352.218 73.1979C350.904 71.4887 349.326 70.1245 347.485 69.1056C345.677 68.0537 343.869 67.5278 342.061 67.5278C340.451 67.5278 339.202 67.9387 338.314 68.7604C337.46 69.5822 337.032 70.6012 337.032 71.8174C337.032 72.5734 337.197 73.2472 337.525 73.8389C337.887 74.4306 338.396 74.9565 339.054 75.4167C339.711 75.8769 340.484 76.337 341.371 76.7972L346.647 79.4104C347.534 79.8377 348.504 80.3965 349.556 81.0868C350.608 81.7442 351.627 82.5824 352.613 83.6014C353.599 84.6204 354.404 85.853 355.029 87.2993C355.653 88.7127 355.966 90.4056 355.966 92.3778C355.966 94.9417 355.374 97.259 354.191 99.3299C353.007 101.368 351.331 102.995 349.161 104.211C347.025 105.394 344.461 105.986 341.47 105.986ZM374.445 105V83.9958L361.675 60.625H371.635L376.861 70.5847C377.223 71.3079 377.601 72.0475 377.995 72.8035C378.39 73.5266 378.768 74.3977 379.129 75.4167C379.524 74.3977 379.902 73.5266 380.263 72.8035C380.658 72.0475 381.052 71.3079 381.447 70.5847L386.722 60.625H396.09L383.32 83.9958V105H374.445Z" fill="white"/>
</svg>
