<svg width="1162" height="1261" viewBox="0 0 1162 1261" fill="none" xmlns="http://www.w3.org/2000/svg">
<path d="M924.233 115.958C929.16 110.01 1099.88 223.41 1099.06 292.617C1098.25 361.824 941.156 518.479 930.64 528.552C920.123 538.625 878.116 552.747 854.507 535.692C830.899 518.637 832.293 488.637 836.071 462.21C839.849 435.784 919.305 121.906 924.233 115.958Z" fill="#B8E0EF"/>
<path d="M874.078 320.883C890.295 335.807 955.975 398.512 963.905 442.147C972.962 491.981 939.425 520.469 928.909 530.542C918.392 540.615 878.116 552.748 854.507 535.693C830.899 518.638 832.429 486.76 836.207 460.334C839.531 437.084 863.523 344.277 869.245 322.294C869.809 320.129 872.432 319.369 874.078 320.883Z" fill="#397489"/>
<path d="M512.709 82.0422C511.853 74.3661 712.017 30.336 761.235 78.997C810.453 127.658 814.015 349.483 813.955 364.045C813.896 378.607 794.873 418.635 766.205 423.77C737.537 428.905 716.925 407.063 700.54 385.988C684.155 364.912 513.565 89.7183 512.709 82.0422Z" fill="#E1D2FF"/>
<path d="M625.279 260.473C647.28 259.175 738.011 255.486 774.909 280.093C817.048 308.196 814.243 352.11 814.184 366.672C814.125 381.234 794.874 418.635 766.206 423.77C737.538 428.905 715.67 405.661 699.284 384.585C684.869 366.044 634.776 284.316 622.937 264.929C621.772 263.02 623.047 260.605 625.279 260.473Z" fill="#7A62AA"/>
<path d="M200.62 328.596C194.759 323.566 311.121 154.853 380.304 156.875C449.486 158.896 603.376 318.7 613.263 329.391C623.151 340.081 636.538 382.329 619.074 405.636C601.609 428.943 571.638 427.026 545.281 422.787C518.924 418.549 206.481 333.626 200.62 328.596Z" fill="#CCEFBF"/>
<path d="M404.639 382.32C419.844 366.366 483.685 301.79 527.452 294.622C577.436 286.436 605.335 320.466 615.222 331.157C625.11 341.847 636.539 382.329 619.074 405.636C601.61 428.943 569.764 426.858 543.407 422.619C520.219 418.89 427.845 393.281 405.965 387.176C403.811 386.575 403.096 383.939 404.639 382.32Z" fill="#679157"/>
<path d="M168.447 740.628C160.771 741.484 116.741 541.321 165.402 492.103C214.063 442.884 435.888 439.323 450.45 439.382C465.012 439.442 505.04 458.464 510.175 487.132C515.31 515.8 493.468 536.412 472.392 552.798C451.317 569.183 176.123 739.772 168.447 740.628Z" fill="#FDE1AC"/>
<path d="M346.878 628.058C345.58 606.057 341.891 515.326 366.498 478.429C394.6 436.29 438.515 439.094 453.077 439.154C467.639 439.213 505.04 458.463 510.175 487.131C515.31 515.799 492.065 537.668 470.99 554.053C452.449 568.468 370.721 618.562 351.334 630.4C349.425 631.566 347.01 630.291 346.878 628.058Z" fill="#A3844B"/>
<path d="M421.601 1039.77C416.674 1045.72 245.956 932.322 246.77 863.114C247.584 793.907 404.678 637.252 415.194 627.179C425.71 617.106 467.718 602.984 491.326 620.039C514.935 637.094 513.541 667.094 509.763 693.521C505.985 719.948 426.528 1033.83 421.601 1039.77Z" fill="#2F80ED"/>
<path d="M471.756 834.848C455.539 819.924 389.859 757.22 381.928 713.585C372.871 663.751 406.409 635.262 416.925 625.189C427.441 615.117 467.718 602.983 491.326 620.038C514.935 637.093 513.405 668.971 509.627 695.398C506.303 718.647 482.31 811.455 476.588 833.438C476.025 835.602 473.402 836.363 471.756 834.848Z" fill="#1C4883"/>
<path d="M825.086 1096.51C825.673 1104.21 624.095 1141.23 576.605 1090.88C529.115 1040.53 533.297 818.719 533.865 804.168C534.432 789.617 554.84 750.278 583.67 746.146C612.5 742.015 632.337 764.563 647.977 786.198C663.617 807.832 824.498 1088.81 825.086 1096.51Z" fill="#BAE5F5"/>
<path d="M718.812 914.262C696.779 914.792 605.975 915.311 569.958 889.432C528.826 859.876 533.161 816.086 533.729 801.535C534.296 786.984 554.84 750.277 583.67 746.146C612.5 742.015 633.544 766.008 649.183 787.642C662.943 806.675 710.153 890.102 721.308 909.891C722.406 911.839 721.048 914.208 718.812 914.262Z" fill="#397489"/>
<path d="M1133.13 838.059C1138.99 843.089 1022.63 1011.8 953.446 1009.78C884.263 1007.76 730.374 847.955 720.486 837.264C710.598 826.574 697.211 784.326 714.676 761.019C732.14 737.712 762.111 739.629 788.468 743.868C814.825 748.106 1127.27 833.029 1133.13 838.059Z" fill="#CCEFBF"/>
<path d="M929.11 784.335C913.905 800.289 850.064 864.865 806.297 872.032C756.313 880.218 728.414 846.189 718.527 835.498C708.639 824.808 697.21 784.326 714.675 761.019C732.139 737.712 763.985 739.797 790.342 744.036C813.53 747.765 905.904 773.374 927.785 779.479C929.939 780.08 930.653 782.716 929.11 784.335Z" fill="#679157"/>
</svg>
