<svg width="340" height="240" viewBox="0 0 340 240" fill="none" xmlns="http://www.w3.org/2000/svg">
<path d="M198.115 22.632C198.702 21.9233 219.042 35.434 218.945 43.6795C218.848 51.9251 200.132 70.5893 198.879 71.7894C197.626 72.9895 192.621 74.6721 189.808 72.6401C186.995 70.6081 187.161 67.0339 187.611 63.8853C188.062 60.7367 197.528 23.3406 198.115 22.632Z" fill="#B8E0EF"/>
<path d="M195.206 50.054C198.22 53.1882 202.186 57.8883 202.842 61.4949C203.921 67.4322 199.925 70.8264 198.672 72.0265C197.419 73.2266 192.621 74.6721 189.808 72.6402C186.995 70.6082 187.178 66.8102 187.628 63.6617C187.905 61.7198 189.393 55.7049 190.493 51.3797C191.044 49.2124 193.656 48.4419 195.206 50.054Z" fill="#397489"/>
<path d="M149.085 18.5912C148.983 17.6766 172.831 12.4308 178.695 18.2284C184.559 24.026 184.984 50.4548 184.977 52.1897C184.969 53.9246 182.703 58.6937 179.288 59.3055C175.872 59.9173 173.416 57.3149 171.464 54.804C169.512 52.293 149.187 19.5057 149.085 18.5912Z" fill="#E1D2FF"/>
<path d="M166.79 39.7326C171.138 39.7422 177.275 40.1536 180.324 42.1874C185.345 45.5356 185.011 50.7677 185.004 52.5027C184.997 54.2376 182.703 58.6937 179.288 59.3055C175.872 59.9173 173.267 57.1479 171.314 54.6369C170.11 53.0882 166.817 47.8396 164.47 44.0441C163.294 42.1421 164.554 39.7277 166.79 39.7326Z" fill="#7A62AA"/>
<path d="M111.902 47.9661C111.204 47.3668 125.068 27.266 133.31 27.5069C141.553 27.7477 159.888 46.7871 161.066 48.0608C162.244 49.3345 163.839 54.368 161.758 57.1449C159.677 59.9217 156.106 59.6934 152.966 59.1883C149.826 58.6833 112.601 48.5655 111.902 47.9661Z" fill="#CCEFBF"/>
<path d="M139.269 51.3533C142.456 48.3951 147.224 44.5109 150.842 43.9184C156.797 42.9431 160.121 46.9975 161.299 48.2712C162.477 49.5449 163.839 54.368 161.758 57.1449C159.677 59.9217 155.883 59.6732 152.743 59.1682C150.806 58.8567 144.818 57.2641 140.513 56.0891C138.355 55.5003 137.63 52.8749 139.269 51.3533Z" fill="#679157"/>
<path d="M108.069 97.0567C107.155 97.1586 101.909 73.3107 107.706 67.4467C113.504 61.5828 139.933 61.1584 141.668 61.1655C143.403 61.1726 148.172 63.439 148.783 66.8545C149.395 70.2701 146.793 72.7259 144.282 74.6781C141.771 76.6303 108.984 96.9547 108.069 97.0567Z" fill="#FDE1AC"/>
<path d="M129.211 79.3518C129.22 75.0039 129.632 68.8674 131.665 65.8176C135.014 60.7971 140.246 61.1312 141.981 61.1383C143.716 61.1454 148.172 63.4389 148.783 66.8545C149.395 70.2701 146.626 72.8755 144.115 74.8277C142.566 76.0317 137.318 79.3249 133.522 81.6723C131.62 82.8485 129.206 81.5881 129.211 79.3518Z" fill="#A3844B"/>
<path d="M138.231 132.697C137.644 133.406 117.304 119.895 117.401 111.65C117.498 103.404 136.214 84.7402 137.467 83.5401C138.72 82.34 143.725 80.6574 146.538 82.6894C149.351 84.7213 149.185 88.2956 148.734 91.4442C148.284 94.5927 138.818 131.989 138.231 132.697Z" fill="#2F80ED"/>
<path d="M141.14 105.276C138.126 102.141 134.159 97.4412 133.504 93.8346C132.425 87.8973 136.42 84.5031 137.673 83.303C138.926 82.1029 143.725 80.6573 146.538 82.6893C149.35 84.7212 149.168 88.5193 148.718 91.6678C148.44 93.6097 146.953 99.6246 145.853 103.95C145.302 106.117 142.689 106.888 141.14 105.276Z" fill="#1C4883"/>
<path d="M186.303 139.458C186.373 140.375 162.356 144.786 156.698 138.787C151.04 132.788 151.538 106.361 151.606 104.627C151.674 102.893 154.105 98.2063 157.54 97.7141C160.975 97.2219 163.338 99.9083 165.201 102.486C167.065 105.063 186.233 138.54 186.303 139.458Z" fill="#BAE5F5"/>
<path d="M169.346 117.711C165.001 117.55 158.883 116.924 155.906 114.785C151.005 111.264 151.522 106.047 151.59 104.313C151.657 102.58 154.105 98.2062 157.54 97.714C160.975 97.2218 163.482 100.08 165.345 102.658C166.494 104.248 169.602 109.608 171.816 113.483C172.925 115.425 171.581 117.794 169.346 117.711Z" fill="#397489"/>
<path d="M223.004 108.665C223.702 109.264 209.838 129.365 201.596 129.124C193.353 128.883 175.018 109.844 173.84 108.57C172.662 107.296 171.067 102.263 173.148 99.4861C175.229 96.7092 178.8 96.9376 181.94 97.4426C185.08 97.9477 222.305 108.066 223.004 108.665Z" fill="#CCEFBF"/>
<path d="M195.637 105.278C192.45 108.236 187.682 112.12 184.064 112.713C178.109 113.688 174.785 109.633 173.607 108.36C172.429 107.086 171.067 102.263 173.148 99.4861C175.229 96.7093 179.023 96.9577 182.163 97.4628C184.1 97.7742 190.088 99.3669 194.393 100.542C196.551 101.131 197.275 103.756 195.637 105.278Z" fill="#679157"/>
<path d="M87.0118 211.8C84.0785 211.8 81.3377 211.267 78.7896 210.2C76.2414 209.104 73.9896 207.607 72.034 205.711C70.1081 203.815 68.597 201.607 67.5007 199.089C66.4044 196.57 65.8563 193.874 65.8563 191C65.8563 188.126 66.4044 185.43 67.5007 182.911C68.597 180.393 70.1081 178.185 72.034 176.289C73.9896 174.393 76.2414 172.911 78.7896 171.844C81.3377 170.748 84.0785 170.2 87.0118 170.2C89.6488 170.2 92.1377 170.63 94.4785 171.489C96.8192 172.348 98.9081 173.563 100.745 175.133L98.4785 184.467C97.3822 182.63 95.8711 181.089 93.9451 179.844C92.0192 178.57 89.797 177.933 87.2785 177.933C84.8785 177.933 82.7007 178.526 80.7451 179.711C78.8192 180.867 77.2933 182.437 76.1674 184.422C75.0414 186.378 74.4785 188.57 74.4785 191C74.4785 193.4 75.0414 195.593 76.1674 197.578C77.2933 199.563 78.8192 201.148 80.7451 202.333C82.7007 203.489 84.8785 204.067 87.2785 204.067C89.7674 204.067 91.9748 203.444 93.9007 202.2C95.8563 200.926 97.3822 199.37 98.4785 197.533L100.745 206.867C98.8785 208.407 96.7748 209.622 94.434 210.511C92.1229 211.37 89.6488 211.8 87.0118 211.8ZM110.89 211V171H119.157V203.8H131.157V211H110.89ZM138.325 211L155.969 169.578H156.058L173.702 211H165.658L162.68 203.889H149.08L146.102 211H138.325ZM151.747 197.489H160.013L158.28 193.4C157.806 192.304 157.362 191.252 156.947 190.244C156.562 189.207 156.191 188.007 155.836 186.644C155.51 187.978 155.154 189.163 154.769 190.2C154.384 191.237 153.954 192.304 153.48 193.4L151.747 197.489ZM193.242 211.889C190.812 211.889 188.501 211.444 186.309 210.556C184.146 209.637 182.412 208.541 181.109 207.267L183.287 198.378C184.324 200.185 185.79 201.696 187.687 202.911C189.583 204.096 191.524 204.689 193.509 204.689C195.138 204.689 196.412 204.244 197.331 203.356C198.279 202.467 198.753 201.385 198.753 200.111C198.753 199.074 198.501 198.215 197.998 197.533C197.524 196.852 196.946 196.289 196.264 195.844C195.612 195.4 195.035 195.059 194.531 194.822L189.82 192.467C188.457 191.785 187.153 190.985 185.909 190.067C184.664 189.119 183.642 187.948 182.842 186.556C182.072 185.163 181.687 183.444 181.687 181.4C181.687 179.148 182.19 177.178 183.198 175.489C184.235 173.8 185.687 172.481 187.553 171.533C189.42 170.585 191.612 170.111 194.131 170.111C196.501 170.111 198.605 170.496 200.442 171.267C202.309 172.007 203.82 172.807 204.975 173.667L202.931 182.333C201.746 180.793 200.324 179.563 198.664 178.644C197.035 177.696 195.405 177.222 193.775 177.222C192.324 177.222 191.198 177.593 190.398 178.333C189.627 179.074 189.242 179.993 189.242 181.089C189.242 181.77 189.39 182.378 189.687 182.911C190.012 183.444 190.472 183.919 191.064 184.333C191.657 184.748 192.353 185.163 193.153 185.578L197.909 187.933C198.709 188.319 199.583 188.822 200.531 189.444C201.479 190.037 202.398 190.793 203.287 191.711C204.175 192.63 204.901 193.741 205.464 195.044C206.027 196.319 206.309 197.844 206.309 199.622C206.309 201.933 205.775 204.022 204.709 205.889C203.642 207.726 202.131 209.193 200.175 210.289C198.249 211.356 195.938 211.889 193.242 211.889ZM227.035 211.889C224.605 211.889 222.294 211.444 220.101 210.556C217.938 209.637 216.205 208.541 214.901 207.267L217.079 198.378C218.116 200.185 219.583 201.696 221.479 202.911C223.375 204.096 225.316 204.689 227.301 204.689C228.931 204.689 230.205 204.244 231.123 203.356C232.072 202.467 232.546 201.385 232.546 200.111C232.546 199.074 232.294 198.215 231.79 197.533C231.316 196.852 230.738 196.289 230.057 195.844C229.405 195.4 228.827 195.059 228.323 194.822L223.612 192.467C222.249 191.785 220.946 190.985 219.701 190.067C218.457 189.119 217.435 187.948 216.635 186.556C215.864 185.163 215.479 183.444 215.479 181.4C215.479 179.148 215.983 177.178 216.99 175.489C218.027 173.8 219.479 172.481 221.346 171.533C223.212 170.585 225.405 170.111 227.923 170.111C230.294 170.111 232.398 170.496 234.235 171.267C236.101 172.007 237.612 172.807 238.768 173.667L236.723 182.333C235.538 180.793 234.116 179.563 232.457 178.644C230.827 177.696 229.198 177.222 227.568 177.222C226.116 177.222 224.99 177.593 224.19 178.333C223.42 179.074 223.035 179.993 223.035 181.089C223.035 181.77 223.183 182.378 223.479 182.911C223.805 183.444 224.264 183.919 224.857 184.333C225.449 184.748 226.146 185.163 226.946 185.578L231.701 187.933C232.501 188.319 233.375 188.822 234.323 189.444C235.272 190.037 236.19 190.793 237.079 191.711C237.968 192.63 238.694 193.741 239.257 195.044C239.82 196.319 240.101 197.844 240.101 199.622C240.101 201.933 239.568 204.022 238.501 205.889C237.435 207.726 235.923 209.193 233.968 210.289C232.042 211.356 229.731 211.889 227.035 211.889ZM256.759 211V192.067L245.248 171H254.226L258.937 179.978C259.263 180.63 259.603 181.296 259.959 181.978C260.315 182.63 260.655 183.415 260.981 184.333C261.337 183.415 261.678 182.63 262.003 181.978C262.359 181.296 262.715 180.63 263.07 179.978L267.826 171H276.27L264.759 192.067V211H256.759Z" fill="white"/>
</svg>
